<svg version="1.1" xmlns="http://www.w3.org/2000/svg" width="250" height="169"><desc>Created by Grid Painter http://grid-painter.appspot.com</desc><rect x="0" y="0" width="251" height="170" fill="transparent" stroke-width="0" /><path d="M125.553755053 0L104.769145362 12L125.553755053 24Z" fill="#ccc" stroke-width="0" /><path d="M125.553755053 0L125.553755053 24L146.338364744 12Z" fill="#888" stroke-width="0" /><path d="M104.769145362 12L83.9845356716 24L104.769145362 36Z" fill="#ccc" stroke-width="0" /><path d="M104.769145362 12L104.769145362 36L125.553755053 24Z" fill="#ccc" stroke-width="0" /><path d="M146.338364744 12L125.553755053 24L146.338364744 36Z" fill="#888" stroke-width="0" /><path d="M146.338364744 12L146.338364744 36L167.122974435 24Z" fill="#888" stroke-width="0" /><path d="M83.9845356716 24L63.1999259807 36L83.9845356716 48Z" fill="#ccc" stroke-width="0" /><path d="M83.9845356716 24L83.9845356716 48L104.769145362 36Z" fill="#ccc" stroke-width="0" /><path d="M125.553755053 24L104.769145362 36L125.553755053 48Z" fill="#ccc" stroke-width="0" /><path d="M125.553755053 24L125.553755053 48L146.338364744 36Z" fill="#888" stroke-width="0" /><path d="M167.122974435 24L146.338364744 36L167.122974435 48Z" fill="#888" stroke-width="0" /><path d="M167.122974435 24L167.122974435 48L187.907584126 36Z" fill="#888" stroke-width="0" /><path d="M63.1999259807 36L42.4153162899 48L63.1999259807 60Z" fill="#ccc" stroke-width="0" /><path d="M63.1999259807 36L63.1999259807 60L83.9845356716 48Z" fill="#ccc" stroke-width="0" /><path d="M104.769145362 36L83.9845356716 48L104.769145362 60Z" fill="#888" stroke-width="0" /><path d="M104.769145362 36L104.769145362 60L125.553755053 48Z" fill="#ccc" stroke-width="0" /><path d="M146.338364744 36L125.553755053 48L146.338364744 60Z" fill="#888" stroke-width="0" /><path d="M146.338364744 36L146.338364744 60L167.122974435 48Z" fill="#666" stroke-width="0" /><path d="M187.907584126 36L167.122974435 48L187.907584126 60Z" fill="#888" stroke-width="0" /><path d="M187.907584126 36L187.907584126 60L208.692193817 48Z" fill="#888" stroke-width="0" /><path d="M42.4153162899 48L21.6307065991 60L42.4153162899 72Z" fill="#ccc" stroke-width="0" /><path d="M42.4153162899 48L42.4153162899 72L63.1999259807 60Z" fill="#ccc" stroke-width="0" /><path d="M83.9845356716 48L63.1999259807 60L83.9845356716 72Z" fill="#888" stroke-width="0" /><path d="M83.9845356716 48L83.9845356716 72L104.769145362 60Z" fill="#888" stroke-width="0" /><path d="M125.553755053 48L104.769145362 60L125.553755053 72Z" fill="#ccc" stroke-width="0" /><path d="M125.553755053 48L125.553755053 72L146.338364744 60Z" fill="#888" stroke-width="0" /><path d="M167.122974435 48L146.338364744 60L167.122974435 72Z" fill="#666" stroke-width="0" /><path d="M167.122974435 48L167.122974435 72L187.907584126 60Z" fill="#666" stroke-width="0" /><path d="M208.692193817 48L187.907584126 60L208.692193817 72Z" fill="#888" stroke-width="0" /><path d="M208.692193817 48L208.692193817 72L229.476803507 60Z" fill="#888" stroke-width="0" /><path d="M21.6307065991 60L0.846096908265 72L21.6307065991 84Z" fill="#ccc" stroke-width="0" /><path d="M21.6307065991 60L21.6307065991 84L42.4153162899 72Z" fill="#ccc" stroke-width="0" /><path d="M63.1999259807 60L42.4153162899 72L63.1999259807 84Z" fill="#ccc" stroke-width="0" /><path d="M63.1999259807 60L63.1999259807 84L83.9845356716 72Z" fill="#ccc" stroke-width="0" /><path d="M104.769145362 60L104.769145362 84L125.553755053 72Z" fill="#ccc" stroke-width="0" /><path d="M146.338364744 60L125.553755053 72L146.338364744 84Z" fill="#888" stroke-width="0" /><path d="M187.907584126 60L167.122974435 72L187.907584126 84Z" fill="#666" stroke-width="0" /><path d="M187.907584126 60L187.907584126 84L208.692193817 72Z" fill="#666" stroke-width="0" /><path d="M229.476803507 60L208.692193817 72L229.476803507 84Z" fill="#888" stroke-width="0" /><path d="M229.476803507 60L229.476803507 84L250.261413198 72Z" fill="#888" stroke-width="0" /><path d="M0.846096908265 72L0.846096908265 96L21.6307065991 84Z" fill="#ccc" stroke-width="0" /><path d="M42.4153162899 72L21.6307065991 84L42.4153162899 96Z" fill="#888" stroke-width="0" /><path d="M42.4153162899 72L42.4153162899 96L63.1999259807 84Z" fill="#666" stroke-width="0" /><path d="M83.9845356716 72L63.1999259807 84L83.9845356716 96Z" fill="#ccc" stroke-width="0" /><path d="M83.9845356716 72L83.9845356716 96L104.769145362 84Z" fill="#ccc" stroke-width="0" /><path d="M125.553755053 72L104.769145362 84L125.553755053 96Z" fill="#ccc" stroke-width="0" /><path d="M125.553755053 72L125.553755053 96L146.338364744 84Z" fill="#888" stroke-width="0" /><path d="M208.692193817 72L187.907584126 84L208.692193817 96Z" fill="#666" stroke-width="0" /><path d="M208.692193817 72L208.692193817 96L229.476803507 84Z" fill="#666" stroke-width="0" /><path d="M250.261413198 72L229.476803507 84L250.261413198 96Z" fill="#888" stroke-width="0" /><path d="M21.6307065991 84L0.846096908265 96L21.6307065991 108Z" fill="#888" stroke-width="0" /><path d="M21.6307065991 84L21.6307065991 108L42.4153162899 96Z" fill="#888" stroke-width="0" /><path d="M63.1999259807 84L42.4153162899 96L63.1999259807 108Z" fill="#666" stroke-width="0" /><path d="M63.1999259807 84L63.1999259807 108L83.9845356716 96Z" fill="#666" stroke-width="0" /><path d="M104.769145362 84L83.9845356716 96L104.769145362 108Z" fill="#ccc" stroke-width="0" /><path d="M104.769145362 84L104.769145362 108L125.553755053 96Z" fill="#ccc" stroke-width="0" /><path d="M146.338364744 84L125.553755053 96L146.338364744 108Z" fill="#888" stroke-width="0" /><path d="M187.907584126 84L167.122974435 96L187.907584126 108Z" fill="#ccc" stroke-width="0" /><path d="M187.907584126 84L187.907584126 108L208.692193817 96Z" fill="#ccc" stroke-width="0" /><path d="M229.476803507 84L208.692193817 96L229.476803507 108Z" fill="#666" stroke-width="0" /><path d="M229.476803507 84L229.476803507 108L250.261413198 96Z" fill="#666" stroke-width="0" /><path d="M83.9845356716 96L63.1999259807 108L83.9845356716 120Z" fill="#666" stroke-width="0" /><path d="M83.9845356716 96L83.9845356716 120L104.769145362 108Z" fill="#666" stroke-width="0" /><path d="M125.553755053 96L104.769145362 108L125.553755053 120Z" fill="#ccc" stroke-width="0" /><path d="M125.553755053 96L125.553755053 120L146.338364744 108Z" fill="#888" stroke-width="0" /><path d="M167.122974435 96L146.338364744 108L167.122974435 120Z" fill="#ccc" stroke-width="0" /><path d="M167.122974435 96L167.122974435 120L187.907584126 108Z" fill="#ccc" stroke-width="0" /><path d="M208.692193817 96L187.907584126 108L208.692193817 120Z" fill="#666" stroke-width="0" /><path d="M208.692193817 96L208.692193817 120L229.476803507 108Z" fill="#666" stroke-width="0" /><path d="M104.769145362 108L83.9845356716 120L104.769145362 132Z" fill="#666" stroke-width="0" /><path d="M104.769145362 108L104.769145362 132L125.553755053 120Z" fill="#ccc" stroke-width="0" /><path d="M146.338364744 108L125.553755053 120L146.338364744 132Z" fill="#ccc" stroke-width="0" /><path d="M146.338364744 108L146.338364744 132L167.122974435 120Z" fill="#ccc" stroke-width="0" /><path d="M187.907584126 108L167.122974435 120L187.907584126 132Z" fill="#666" stroke-width="0" /><path d="M187.907584126 108L187.907584126 132L208.692193817 120Z" fill="#666" stroke-width="0" /><path d="M125.553755053 120L104.769145362 132L125.553755053 144Z" fill="#ccc" stroke-width="0" /><path d="M125.553755053 120L125.553755053 144L146.338364744 132Z" fill="#ccc" stroke-width="0" /><path d="M167.122974435 120L146.338364744 132L167.122974435 144Z" fill="#666" stroke-width="0" /><path d="M167.122974435 120L167.122974435 144L187.907584126 132Z" fill="#666" stroke-width="0" /><path d="M104.769145362 132L104.769145362 156L125.553755053 144Z" fill="#ccc" stroke-width="0" /><path d="M146.338364744 132L125.553755053 144L146.338364744 156Z" fill="#666" stroke-width="0" /><path d="M146.338364744 132L146.338364744 156L167.122974435 144Z" fill="#666" stroke-width="0" /><path d="M125.553755053 144L104.769145362 156L125.553755053 168Z" fill="#666" stroke-width="0" /><path d="M125.553755053 144L125.553755053 168L146.338364744 156Z" fill="#666" stroke-width="0" /></svg>
