<svg version="1.1" xmlns="http://www.w3.org/2000/svg" width="209" height="145"><desc>Created by Grid Painter http://grid-painter.appspot.com</desc><rect x="0" y="0" width="210" height="146" fill="transparent" stroke-width="0" /><path d="M104.553755053 0L83.7691453624 12L104.553755053 24Z" fill="#eeeeee" stroke-width="0" /><path d="M104.553755053 0L104.553755053 24L125.338364744 12Z" fill="#888888" stroke-width="0" /><path d="M83.7691453624 12L62.9845356716 24L83.7691453624 36Z" fill="#eeeeee" stroke-width="0" /><path d="M83.7691453624 12L83.7691453624 36L104.553755053 24Z" fill="#eeeeee" stroke-width="0" /><path d="M125.338364744 12L104.553755053 24L125.338364744 36Z" fill="#888888" stroke-width="0" /><path d="M125.338364744 12L125.338364744 36L146.122974435 24Z" fill="#888888" stroke-width="0" /><path d="M62.9845356716 24L42.1999259807 36L62.9845356716 48Z" fill="#eeeeee" stroke-width="0" /><path d="M62.9845356716 24L62.9845356716 48L83.7691453624 36Z" fill="#eeeeee" stroke-width="0" /><path d="M104.553755053 24L83.7691453624 36L104.553755053 48Z" fill="#eeeeee" stroke-width="0" /><path d="M104.553755053 24L104.553755053 48L125.338364744 36Z" fill="#888888" stroke-width="0" /><path d="M146.122974435 24L125.338364744 36L146.122974435 48Z" fill="#888888" stroke-width="0" /><path d="M146.122974435 24L146.122974435 48L166.907584126 36Z" fill="#888888" stroke-width="0" /><path d="M42.1999259807 36L21.4153162899 48L42.1999259807 60Z" fill="#eeeeee" stroke-width="0" /><path d="M42.1999259807 36L42.1999259807 60L62.9845356716 48Z" fill="#eeeeee" stroke-width="0" /><path d="M83.7691453624 36L62.9845356716 48L83.7691453624 60Z" fill="#888888" stroke-width="0" /><path d="M83.7691453624 36L83.7691453624 60L104.553755053 48Z" fill="#eeeeee" stroke-width="0" /><path d="M125.338364744 36L104.553755053 48L125.338364744 60Z" fill="#888888" stroke-width="0" /><path d="M125.338364744 36L125.338364744 60L146.122974435 48Z" fill="#555555" stroke-width="0" /><path d="M166.907584126 36L146.122974435 48L166.907584126 60Z" fill="#888888" stroke-width="0" /><path d="M166.907584126 36L166.907584126 60L187.692193817 48Z" fill="#888888" stroke-width="0" /><path d="M21.4153162899 48L0.630706599092 60L21.4153162899 72Z" fill="#eeeeee" stroke-width="0" /><path d="M21.4153162899 48L21.4153162899 72L42.1999259807 60Z" fill="#eeeeee" stroke-width="0" /><path d="M62.9845356716 48L42.1999259807 60L62.9845356716 72Z" fill="#888888" stroke-width="0" /><path d="M62.9845356716 48L62.9845356716 72L83.7691453624 60Z" fill="#888888" stroke-width="0" /><path d="M104.553755053 48L83.7691453624 60L104.553755053 72Z" fill="#eeeeee" stroke-width="0" /><path d="M104.553755053 48L104.553755053 72L125.338364744 60Z" fill="#888888" stroke-width="0" /><path d="M146.122974435 48L125.338364744 60L146.122974435 72Z" fill="#555555" stroke-width="0" /><path d="M146.122974435 48L146.122974435 72L166.907584126 60Z" fill="#555555" stroke-width="0" /><path d="M187.692193817 48L166.907584126 60L187.692193817 72Z" fill="#888888" stroke-width="0" /><path d="M187.692193817 48L187.692193817 72L208.476803507 60Z" fill="#888888" stroke-width="0" /><path d="M0.630706599092 60L0.630706599092 84L21.4153162899 72Z" fill="#eeeeee" stroke-width="0" /><path d="M42.1999259807 60L21.4153162899 72L42.1999259807 84Z" fill="#888888" stroke-width="0" /><path d="M42.1999259807 60L42.1999259807 84L62.9845356716 72Z" fill="#888888" stroke-width="0" /><path d="M83.7691453624 60L83.7691453624 84L104.553755053 72Z" fill="#eeeeee" stroke-width="0" /><path d="M125.338364744 60L104.553755053 72L125.338364744 84Z" fill="#888888" stroke-width="0" /><path d="M166.907584126 60L146.122974435 72L166.907584126 84Z" fill="#555555" stroke-width="0" /><path d="M166.907584126 60L166.907584126 84L187.692193817 72Z" fill="#555555" stroke-width="0" /><path d="M208.476803507 60L187.692193817 72L208.476803507 84Z" fill="#888888" stroke-width="0" /><path d="M21.4153162899 72L0.630706599092 84L21.4153162899 96Z" fill="#888888" stroke-width="0" /><path d="M21.4153162899 72L21.4153162899 96L42.1999259807 84Z" fill="#888888" stroke-width="0" /><path d="M104.553755053 72L83.7691453624 84L104.553755053 96Z" fill="#eeeeee" stroke-width="0" /><path d="M104.553755053 72L104.553755053 96L125.338364744 84Z" fill="#888888" stroke-width="0" /><path d="M146.122974435 72L125.338364744 84L146.122974435 96Z" fill="#555555" stroke-width="0" /><path d="M146.122974435 72L146.122974435 96L166.907584126 84Z" fill="#555555" stroke-width="0" /><path d="M187.692193817 72L166.907584126 84L187.692193817 96Z" fill="#888888" stroke-width="0" /><path d="M187.692193817 72L187.692193817 96L208.476803507 84Z" fill="#888888" stroke-width="0" /><path d="M83.7691453624 84L83.7691453624 108L104.553755053 96Z" fill="#eeeeee" stroke-width="0" /><path d="M125.338364744 84L104.553755053 96L125.338364744 108Z" fill="#888888" stroke-width="0" /><path d="M125.338364744 84L125.338364744 108L146.122974435 96Z" fill="#555555" stroke-width="0" /><path d="M166.907584126 84L146.122974435 96L166.907584126 108Z" fill="#888888" stroke-width="0" /><path d="M166.907584126 84L166.907584126 108L187.692193817 96Z" fill="#888888" stroke-width="0" /><path d="M104.553755053 96L83.7691453624 108L104.553755053 120Z" fill="#eeeeee" stroke-width="0" /><path d="M104.553755053 96L104.553755053 120L125.338364744 108Z" fill="#888888" stroke-width="0" /><path d="M146.122974435 96L125.338364744 108L146.122974435 120Z" fill="#888888" stroke-width="0" /><path d="M146.122974435 96L146.122974435 120L166.907584126 108Z" fill="#888888" stroke-width="0" /><path d="M83.7691453624 108L83.7691453624 132L104.553755053 120Z" fill="#eeeeee" stroke-width="0" /><path d="M125.338364744 108L104.553755053 120L125.338364744 132Z" fill="#888888" stroke-width="0" /><path d="M125.338364744 108L125.338364744 132L146.122974435 120Z" fill="#888888" stroke-width="0" /><path d="M104.553755053 120L83.7691453624 132L104.553755053 144Z" fill="#eeeeee" stroke-width="0" /><path d="M104.553755053 120L104.553755053 144L125.338364744 132Z" fill="#888888" stroke-width="0" /></svg>
